<svg xmlns="http://www.w3.org/2000/svg" width="26.67" height="26.67" viewBox="0 0 26.67 26.67"><path d="M9.113,4.425A5.111,5.111,0,0,0,12.022,3.22a5.111,5.111,0,0,1,6.628,0,5.111,5.111,0,0,0,2.909,1.205,5.111,5.111,0,0,1,4.687,4.687,5.1,5.1,0,0,0,1.205,2.909,5.111,5.111,0,0,1,0,6.628,5.111,5.111,0,0,0-1.205,2.909,5.111,5.111,0,0,1-4.687,4.687,5.111,5.111,0,0,0-2.909,1.205,5.111,5.111,0,0,1-6.628,0,5.111,5.111,0,0,0-2.909-1.205,5.111,5.111,0,0,1-4.687-4.687A5.111,5.111,0,0,0,3.22,18.649a5.111,5.111,0,0,1,0-6.628A5.111,5.111,0,0,0,4.425,9.113,5.111,5.111,0,0,1,9.113,4.425Zm12.4,8.755a1.667,1.667,0,1,0-2.357-2.357l-5.489,5.489-2.155-2.155a1.667,1.667,0,1,0-2.357,2.357l3.334,3.334a1.667,1.667,0,0,0,2.357,0l6.668-6.668Z" transform="translate(-2 -2)" fill="blue" fill-rule="evenodd"/></svg>